HIERARCHY
ROOT Hips
{
	OFFSET 0.000000 0.000000 0.000000
	CHANNELS 6 Xposition Yposition Zposition Xrotation Yrotation Zrotation
	JOINT LeftUpLeg_virtual
	{
		OFFSET 0.000000 0.000000 0.000000
		CHANNELS 3 Xrotation Yrotation Zrotation
		JOINT LeftUpLeg
		{
			OFFSET 10.205400 -3.823500 0.155100
			CHANNELS 3 Xrotation Yrotation Zrotation
			JOINT LeftLeg
			{
				OFFSET 0.708757 -12.982077 0.567790
				CHANNELS 3 Xrotation Yrotation Zrotation
				JOINT LeftFoot
				{
					OFFSET -0.708756 -10.717838 -2.184338
					CHANNELS 3 Xrotation Yrotation Zrotation
					JOINT LeftToeBase
					{
						OFFSET 0.108149 -7.191104 7.560241
						CHANNELS 3 Xrotation Yrotation Zrotation
						JOINT LeftToe_End
						{
							OFFSET 0.070230 0.081724 4.490308
							CHANNELS 3 Xrotation Yrotation Zrotation
							End Site
							{
								OFFSET 0 0 0
							}
						}
					}
				}
			}
		}
	}
	JOINT RightUpLeg_virtual
	{
		OFFSET 0.000000 0.000000 0.000000
		CHANNELS 3 Xrotation Yrotation Zrotation
		JOINT RightUpLeg
		{
			OFFSET -10.205400 -3.823500 0.005500
			CHANNELS 3 Xrotation Yrotation Zrotation
			JOINT RightLeg
			{
				OFFSET -0.708756 -12.982134 0.610632
				CHANNELS 3 Xrotation Yrotation Zrotation
				JOINT RightFoot
				{
					OFFSET 0.708754 -10.717769 -1.945823
					CHANNELS 3 Xrotation Yrotation Zrotation
					JOINT RightToeBase
					{
						OFFSET -0.108140 -7.191069 7.372968
						CHANNELS 3 Xrotation Yrotation Zrotation
						JOINT RightToe_End
						{
							OFFSET -0.070227 0.081735 4.479403
							CHANNELS 3 Xrotation Yrotation Zrotation
							End Site
							{
								OFFSET 0 0 0
							}
						}
					}
				}
			}
		}
	}
	JOINT Spine_virtual
	{
		OFFSET 0.000000 0.000000 0.000000
		CHANNELS 3 Xrotation Yrotation Zrotation
		JOINT Spine
		{
			OFFSET 0.000000 6.876099 0.125700
			CHANNELS 3 Xrotation Yrotation Zrotation
			JOINT Spine1
			{
				OFFSET 0.000000 5.730043 0.104720
				CHANNELS 3 Xrotation Yrotation Zrotation
				JOINT Spine1_split
				{
					OFFSET 0.000000 5.730043 0.104720
					CHANNELS 3 Xrotation Yrotation Zrotation
					JOINT Spine2
					{
						OFFSET 0.000000 5.730043 0.104720
						CHANNELS 3 Xrotation Yrotation Zrotation
						JOINT Neck_virtual
						{
							OFFSET 0.000000 0.000000 0.000000
							CHANNELS 3 Xrotation Yrotation Zrotation
							JOINT Neck
							{
								OFFSET 0.000000 10.314075 0.188496
								CHANNELS 3 Xrotation Yrotation Zrotation
								JOINT Head
								{
									OFFSET 0.000000 7.643700 -2.377400
									CHANNELS 3 Xrotation Yrotation Zrotation
									JOINT HeadTop_End
									{
										OFFSET 0.000000 43.788605 -13.619600
										CHANNELS 3 Xrotation Yrotation Zrotation
										End Site
										{
											OFFSET 0 0 0
										}
									}
								}
							}
						}
						JOINT LeftShoulder_virtual
						{
							OFFSET 0.000000 0.000000 0.000000
							CHANNELS 3 Xrotation Yrotation Zrotation
							JOINT LeftShoulder
							{
								OFFSET 2.196100 4.412489 0.087492
								CHANNELS 3 Xrotation Yrotation Zrotation
								JOINT LeftShoulder_split
								{
									OFFSET 2.196100 4.412489 0.087492
									CHANNELS 3 Xrotation Yrotation Zrotation
									JOINT LeftArm
									{
										OFFSET 8.771219 -2.981674 -0.026999
										CHANNELS 3 Xrotation Yrotation Zrotation
										JOINT LeftForeArm
										{
											OFFSET 8.512804 0.000000 -0.000000
											CHANNELS 3 Xrotation Yrotation Zrotation
											JOINT LeftHand
											{
												OFFSET 18.484802 0.000000 -0.000000
												CHANNELS 3 Xrotation Yrotation Zrotation
												End Site
												{
													OFFSET 0 0 0
												}
											}
										}
									}
								}
							}
						}
						JOINT RightShoulder_virtual
						{
							OFFSET 0.000000 0.000000 0.000000
							CHANNELS 3 Xrotation Yrotation Zrotation
							JOINT RightShoulder
							{
								OFFSET -2.196100 4.412496 0.070690
								CHANNELS 3 Xrotation Yrotation Zrotation
								JOINT RightShoulder_split
								{
									OFFSET -2.196100 4.412496 0.070690
									CHANNELS 3 Xrotation Yrotation Zrotation
									JOINT RightArm
									{
										OFFSET -8.771282 -2.981682 -0.094208
										CHANNELS 3 Xrotation Yrotation Zrotation
										JOINT RightForeArm
										{
											OFFSET -8.494598 0.000000 0.000000
											CHANNELS 3 Xrotation Yrotation Zrotation
											JOINT RightHand
											{
												OFFSET -18.483803 0.000000 0.000001
												CHANNELS 3 Xrotation Yrotation Zrotation
												End Site
												{
													OFFSET 0 0 0
												}
											}
										}
									}
								}
							}
						}
					}
				}
			}
		}
	}
}
MOTION
Frames: 9
Frame Time: 0.03333333
2.786216 34.534145 -3.636613 0.000000 0.000000 0.000000 -0.199542 8.590161 2.242296 -5.890167 8.965409 -0.392724 22.388636 2.667080 8.418714 -15.856387 1.647898 -11.616059 -2.120272 -3.716063 3.306669 0.000000 0.000000 0.000000 0.071560 7.552191 2.164475 7.474863 -8.855861 0.274730 17.177665 2.863237 -1.233424 -30.067982 -27.889191 8.540582 1.733311 3.385659 -9.343362 0.000000 0.000000 0.000000 0.359696 9.120749 1.531230 2.869897 -1.403112 1.156506 -0.293839 0.166720 1.771569 0.136552 -0.404269 0.013087 0.000000 0.000000 0.000000 1.820452 2.937272 1.762806 2.047262 6.676559 0.448510 -17.755041 -41.908958 -36.483920 0.000000 0.000000 0.000000 0.714301 1.016439 1.115061 1.616557 -27.002791 -5.319845 -0.423981 0.241714 -4.319875 13.443768 8.339146 -81.652330 -1.993108 -20.763941 -1.642235 0.000000 0.000000 0.000000 0.011071 1.260248 2.323693 -4.938183 -4.777090 8.552637 -7.157305 -2.589575 1.382212 20.302141 20.552924 64.227827 -11.092523 17.886595 9.669406 0.000000 0.000000 0.000000 
2.756767 34.530586 -3.596273 0.000000 0.000000 0.000000 -0.194564 8.660190 2.235093 -5.842991 8.937230 -0.380525 22.354733 2.727363 8.436520 -15.849763 1.669165 -11.421196 -2.128753 -3.717223 3.332701 0.000000 0.000000 0.000000 0.048590 7.602238 2.150912 7.497799 -8.885104 0.376138 17.260795 2.791293 -1.266218 -30.132872 -27.918289 8.512291 1.503144 3.428932 -9.401251 0.000000 0.000000 0.000000 0.357283 9.163774 1.565684 2.847188 -1.378273 1.113700 -0.333734 0.154797 1.750434 0.145955 -0.436458 -0.002415 0.000000 0.000000 0.000000 1.904822 2.952556 1.767291 2.106713 6.690204 0.504136 -17.982394 -41.736957 -36.563154 0.000000 0.000000 0.000000 0.753645 1.008656 1.142700 1.657758 -27.108189 -5.315254 -0.552829 0.249112 -4.296093 13.638368 8.355070 -81.682369 -2.157883 -21.142716 -1.681102 0.000000 0.000000 0.000000 -0.016939 1.243365 2.389621 -4.834142 -4.965665 8.522845 -7.087790 -2.491151 1.424189 20.463141 20.171137 64.235552 -11.049504 17.682918 9.690452 0.000000 0.000000 0.000000 
2.719883 34.529400 -3.555960 0.000000 0.000000 0.000000 -0.171196 8.757607 2.203486 -5.834795 8.814243 -0.389189 22.287964 2.886439 8.511703 -15.818582 1.805736 -11.340508 -2.220242 -3.705619 3.343171 0.000000 0.000000 0.000000 0.065440 7.685165 2.110387 7.539964 -8.879648 0.532827 17.258717 2.671836 -1.302805 -30.084477 -27.940994 8.648647 1.287601 3.445834 -9.330929 0.000000 0.000000 0.000000 0.358857 9.247653 1.576719 2.815332 -1.347338 1.030478 -0.374155 0.173791 1.779858 0.145223 -0.447109 -0.000075 0.000000 0.000000 0.000000 2.006662 3.004035 1.799009 2.160513 6.603567 0.675246 -18.511163 -41.456584 -36.905636 0.000000 0.000000 0.000000 0.776522 1.032947 1.210395 1.653354 -27.336697 -5.353914 -0.730240 0.198524 -4.284090 13.821470 8.486494 -81.777302 -2.342179 -21.190121 -1.752822 0.000000 0.000000 0.000000 -0.038168 1.266013 2.493171 -4.740185 -5.291019 8.459181 -7.068981 -2.321271 1.563382 20.633672 19.745710 64.152361 -11.010202 17.591396 9.818826 0.000000 0.000000 0.000000 
2.684890 34.531536 -3.519393 0.000000 0.000000 0.000000 -0.128501 8.858521 2.138074 -5.859455 8.605365 -0.432863 22.212199 3.136520 8.616643 -15.821334 2.033623 -11.367373 -2.314605 -3.680322 3.334798 0.000000 0.000000 0.000000 0.117816 7.774726 2.042662 7.579242 -8.841383 0.718922 17.162416 2.503963 -1.368358 -30.049202 -27.939012 8.858512 1.223925 3.431446 -9.152983 0.000000 0.000000 0.000000 0.380718 9.328376 1.551319 2.774692 -1.321750 0.935048 -0.405489 0.225351 1.849105 0.132395 -0.451445 0.011139 0.000000 0.000000 0.000000 2.119335 3.088796 1.843651 2.204939 6.439819 0.940889 -19.307603 -41.097808 -37.452693 0.000000 0.000000 0.000000 0.770109 1.088673 1.304559 1.615684 -27.664938 -5.395985 -1.015067 0.087092 -4.359320 13.894638 8.705800 -81.867187 -2.524170 -20.828122 -1.845249 0.000000 0.000000 0.000000 -0.069448 1.322344 2.610117 -4.681873 -5.705246 8.341053 -7.056515 -2.189874 1.792233 20.770009 19.441556 64.061533 -10.974809 17.717495 9.986618 0.000000 0.000000 0.000000 
2.657698 34.536964 -3.481997 0.000000 0.000000 0.000000 -0.052891 8.952981 2.044264 -5.956709 8.313419 -0.497274 22.195147 3.422298 8.743359 -15.855803 2.300682 -11.515547 -2.328572 -3.643039 3.309072 0.000000 0.000000 0.000000 0.202014 7.843249 1.950855 7.588019 -8.793682 0.910669 17.010832 2.279004 -1.483854 -30.096867 -27.904523 9.085127 1.327908 3.390353 -8.903844 0.000000 0.000000 0.000000 0.442847 9.363038 1.468807 2.734327 -1.316838 0.863048 -0.418241 0.306643 1.935101 0.117353 -0.421194 0.008398 0.000000 0.000000 0.000000 2.233674 3.196468 1.882519 2.283986 6.226856 1.266123 -20.237465 -40.725990 -38.110140 0.000000 0.000000 0.000000 0.751392 1.166063 1.393621 1.570747 -28.049944 -5.414473 -1.266184 -0.020672 -4.539753 13.766661 8.906195 -81.869543 -2.688372 -20.170611 -1.936139 0.000000 0.000000 0.000000 -0.118986 1.405179 2.720501 -4.663771 -6.153010 8.111872 -6.985658 -2.155975 2.047746 20.841655 19.352964 64.023004 -10.932596 18.181678 10.139517 0.000000 0.000000 0.000000 
2.637854 34.547180 -3.448618 0.000000 0.000000 0.000000 0.055880 9.035395 1.928567 -6.126816 7.954226 -0.565016 22.264318 3.695262 8.866631 -15.936373 2.536268 -11.747572 -2.289877 -3.606611 3.290964 0.000000 0.000000 0.000000 0.319447 7.856476 1.849899 7.532017 -8.767654 1.079951 16.889128 1.991883 -1.634541 -30.161282 -27.846760 9.375512 1.490477 3.336995 -8.619125 0.000000 0.000000 0.000000 0.545320 9.335845 1.338262 2.710176 -1.352582 0.843316 -0.408509 0.402974 2.005089 0.118471 -0.363536 0.001944 0.000000 0.000000 0.000000 2.333864 3.313385 1.894047 2.426773 6.007014 1.600306 -21.090487 -40.430127 -38.724441 0.000000 0.000000 0.000000 0.731895 1.249715 1.444385 1.542551 -28.459301 -5.391315 -1.375612 -0.148798 -4.727451 13.408929 8.993068 -81.731068 -2.772558 -19.357195 -1.973237 0.000000 0.000000 0.000000 -0.175440 1.506631 2.803972 -4.681733 -6.566313 7.745517 -6.800566 -2.213186 2.286923 20.834488 19.503559 64.120190 -10.856051 19.010754 10.190745 0.000000 0.000000 0.000000 
2.632308 34.555725 -3.422767 0.000000 0.000000 0.000000 0.185794 9.081463 1.802083 -6.335009 7.582418 -0.610403 22.405664 3.942524 8.947545 -16.054199 2.680853 -11.968552 -2.302424 -3.583291 3.292095 0.000000 0.000000 0.000000 0.442303 7.789213 1.746255 7.374838 -8.788987 1.197098 16.876574 1.675849 -1.794592 -30.153851 -27.784943 9.845745 1.543309 3.284766 -8.331459 0.000000 0.000000 0.000000 0.683291 9.237521 1.171439 2.717130 -1.446732 0.889651 -0.364085 0.505853 2.035875 0.132627 -0.296402 -0.012903 0.000000 0.000000 0.000000 2.397466 3.430244 1.861846 2.633036 5.806328 1.907818 -21.643343 -40.248204 -39.130768 0.000000 0.000000 0.000000 0.738685 1.320542 1.434049 1.541133 -28.852850 -5.323091 -1.339994 -0.234161 -4.938200 12.835348 8.886381 -81.478918 -2.695226 -18.571998 -1.883747 0.000000 0.000000 0.000000 -0.221828 1.616361 2.844267 -4.703057 -6.876973 7.298277 -6.586949 -2.289808 2.534304 20.715773 19.733796 64.299339 -10.730875 20.081342 10.076461 0.000000 0.000000 0.000000 
2.638129 34.553528 -3.406229 0.000000 0.000000 0.000000 0.334684 9.038981 1.687421 -6.577444 7.236464 -0.609339 22.625058 4.149083 8.962378 -16.133066 2.711076 -12.126393 -2.445776 -3.581287 3.295098 0.000000 0.000000 0.000000 0.566533 7.631842 1.639708 7.108971 -8.853302 1.253066 17.058905 1.348056 -1.951722 -30.096901 -27.709342 10.494077 1.429218 3.240394 -8.047526 0.000000 0.000000 0.000000 0.834105 9.049243 0.993566 2.781390 -1.612329 0.995683 -0.284545 0.608356 2.015624 0.150895 -0.230823 -0.024725 0.000000 0.000000 0.000000 2.411991 3.535644 1.778725 2.900862 5.662828 2.167219 -21.752739 -40.206045 -39.210675 0.000000 0.000000 0.000000 0.785265 1.370785 1.355960 1.562050 -29.187277 -5.229464 -1.130217 -0.208356 -5.089744 12.089245 8.601514 -81.215334 -2.391673 -17.968520 -1.610794 0.000000 0.000000 0.000000 -0.236468 1.727688 2.832626 -4.717711 -7.031725 6.817786 -6.447216 -2.408022 2.878364 20.429584 19.788004 64.439235 -10.596131 21.288812 9.790755 0.000000 0.000000 0.000000 
2.647265 34.531433 -3.402299 0.000000 0.000000 0.000000 0.496940 8.837291 1.595633 -6.814951 6.974608 -0.558497 22.922253 4.348096 8.896315 -16.170283 2.654405 -12.151964 -2.710013 -3.597443 3.267856 0.000000 0.000000 0.000000 0.695536 7.377946 1.531538 6.730202 -8.947974 1.253657 17.482163 0.993516 -2.093571 -30.096850 -27.563157 11.133850 1.285493 3.202312 -7.740802 0.000000 0.000000 0.000000 0.989478 8.770076 0.820653 2.933555 -1.860808 1.133092 -0.180005 0.710390 1.942110 0.163243 -0.193908 -0.027019 0.000000 0.000000 0.000000 2.388921 3.628937 1.641429 3.191167 5.606319 2.368191 -21.400632 -40.287389 -38.876805 0.000000 0.000000 0.000000 0.866149 1.403613 1.225211 1.595827 -29.435827 -5.139504 -0.761078 -0.049328 -5.147680 11.219429 8.295208 -81.046137 -1.812789 -17.630153 -1.122359 0.000000 0.000000 0.000000 -0.210912 1.830673 2.763177 -4.713511 -7.012497 6.397421 -6.444536 -2.517233 3.307966 19.974350 19.374824 64.250217 -10.497425 22.477908 9.348282 0.000000 0.000000 0.000000 
